<svg xmlns="http://www.w3.org/2000/svg" width="148" height="25" fill="none"><path fill="#fff" fill-rule="evenodd" d="m52 19 3 1a7 7 0 0 0 6-3l1-4a7 7 0 0 0-3-6l-4-1a7 7 0 0 0-6 3l-1 4a7 7 0 0 0 4 6ZM42 6h-5v14h5l3-1 1-1 1-2-1-2-1-1 1-1V8l-2-1-2-1Zm1 5-1 1h-2V9h3l1 1-1 1Zm-1 6h2v-3h-4v3h2Zm13 1 3-1 1-2 1-2-1-2-1-2-3-1-2 1-2 2v4l2 2 2 1Zm12 1 4 1a7 7 0 0 0 6-3l1-4a7 7 0 0 0-4-6l-3-1a7 7 0 0 0-6 3l-1 4a7 7 0 0 0 3 6Zm4-1 2-1 1-2 1-2-1-2-1-2-2-1-3 1-1 2-1 2 1 2 1 2 3 1ZM82 6h-2v14h2v-4l2-2 4 6h3l-5-8 4-6h-3l-4 6h-1V6Zm12 0h3l4 9 3-9h4v13h-3v-8l-3 8h-2l-4-8v8h-2V6Zm23 0h-2l-5 13h2l1-3h6l1 3h2l-5-13Zm1 8-1-4-1-1-1 1-1 4h4Zm11-8h-4v13h2v-5h1l4 5h3l-4-5 2-1 1-3-1-2-1-1-3-1Zm0 6h2V9l-2-1h-2v4h2Zm10-6h-2v13h2v-4l2-1 4 5h3l-6-7 5-6h-3l-5 6V6Z" clip-rule="evenodd"/><circle cx="12.5" cy="12.5" r="12.5" fill="#5267DF"/><path fill="#fff" fill-rule="evenodd" d="M11 7 9 9v10l4-3 3 3V9l-2-2h-3Z" clip-rule="evenodd"/></svg>